<svg viewBox="0 5 1200 400" width="1200" height="400" xmlns="http://www.w3.org/2000/svg">
  <path fill="#111728" d="M0 0h1200v400H0V0Z"/>
  <path id="a" fill="none" d="M693.406 355.97s182.644-.068 295.244 0c49.499.03 81.531-39.852 81.51-58.398-.833-48.031-52.511-29.394-70.16-83.554-16.307-50.041 4.346-77.969-38.103-79.611-41.876-1.62-225.614.469-225.614.469-.018-.065-90.157-16.425-75.89 53.66 7.302 35.878 46.179 30.709 46.179 30.709s40.64-6.688 92.612-5.651c31.612.63 83.573 5.315 113.583 22.87 25.216 14.751 45.774 31.321 34.501 56.312-12.736 28.234-59.734 31.063-78.215 31.063"/>
  <path id="b" fill="none" d="M869.053 323.806c-40.228 0-96.878.561-96.878.561-17.339 0-150.53-.561-219.528-.561-42.705 0-26.416-67.137-27.484-110.426-.22-8.897 11.143-63.05 65.498-20.351 23.853 18.739 42.361-32.206 18.074-44.025-24.821-12.08-42.55-20.662-87.59-9.211-52.244 13.283-8.368 98.386-32.143 134.156-37.2 55.97-48.828 50.361-260.056 50.361-51.175 0-52.13-55.413-28.946-124.31 10.575-31.426 70.31-57.657 79.738 0 10.667 65.236 9.893 74.595 39.262 93.632 32.195 20.869 84.291-83.192 81-139.375-1.259-21.489-16.789-19.85-45.687-19.85"/>
  <path id="c" fill="none" d="M355 134.407c-31.361 0-133.346-.295-157.294.057-16.878.248-97.706-.057-97.706 29.032v107.71c0 84.581 0 84.581 27.32 84.581"/>
  <path id="d" fill="none" d="M127.32 355.905C199.582 355.733 700 356 700 356"/>
  <path fill="none" d="M693.406 355.97s182.644-.068 295.244 0c49.499.03 81.531-39.852 81.51-58.398-.833-48.031-52.511-29.394-70.16-83.554-16.307-50.041 4.346-77.969-38.103-79.611-41.876-1.62-225.614.469-225.614.469-.018-.065-90.157-16.425-75.89 53.66 7.302 35.878 46.179 30.709 46.179 30.709s40.64-6.688 92.612-5.651c31.612.63 83.573 5.315 113.583 22.87 25.216 14.751 45.774 31.321 34.501 56.312-12.736 28.234-59.734 31.063-78.215 31.063"/>
  <path fill="none" d="M869.053 323.806c-40.228 0-96.878.561-96.878.561-17.339 0-150.53-.561-219.528-.561-42.705 0-26.416-67.137-27.484-110.426-.22-8.897 11.143-63.05 65.498-20.351 23.853 18.739 42.361-32.206 18.074-44.025-24.821-12.08-42.55-20.662-87.59-9.211-52.244 13.283-8.368 98.386-32.143 134.156-37.2 55.97-48.828 50.361-260.056 50.361-51.175 0-52.13-55.413-28.946-124.31 10.575-31.426 70.31-57.657 79.738 0 10.667 65.236 9.893 74.595 39.262 93.632 32.195 20.869 84.291-83.192 81-139.375-1.259-21.489-16.789-19.85-45.687-19.85"/>
  <path fill="none" d="M355 134.407c-31.361 0-133.346-.295-157.294.057-16.878.248-97.706-.057-97.706 29.032v107.71c0 84.581 0 84.581 27.32 84.581m0 .118C199.582 355.733 700 356 700 356"/>
  <g stroke-linejoin="round" fill="none">
    <path d="M693.406 331.97s182.644-.068 295.244 0c49.499.03 81.531-39.852 81.51-58.398-.833-48.031-52.511-29.394-70.16-83.554-16.307-50.041 4.346-77.969-38.103-79.611-41.876-1.62-225.614.469-225.614.469-.018-.065-90.157-16.425-75.89 53.66 7.302 35.878 46.179 30.709 46.179 30.709s40.64-6.688 92.612-5.651c31.612.63 83.573 5.315 113.583 22.87 25.216 14.751 45.774 31.321 34.501 56.312-12.736 28.234-59.734 31.063-78.215 31.063" stroke="#e12b51" stroke-width="24"/>
    <path d="M693.406 331.97s182.644-.068 295.244 0c49.499.03 81.531-39.852 81.51-58.398-.833-48.031-52.511-29.394-70.16-83.554-16.307-50.041 4.346-77.969-38.103-79.611-41.876-1.62-225.614.469-225.614.469-.018-.065-90.157-16.425-75.89 53.66 7.302 35.878 46.179 30.709 46.179 30.709s40.64-6.688 92.612-5.651c31.612.63 83.573 5.315 113.583 22.87 25.216 14.751 45.774 31.321 34.501 56.312-12.736 28.234-59.734 31.063-78.215 31.063" stroke="#fff" stroke-dasharray="26 26" stroke-width="24"/>
    <path d="M693.406 331.97s182.644-.068 295.244 0c49.499.03 81.531-39.852 81.51-58.398-.833-48.031-52.511-29.394-70.16-83.554-16.307-50.041 4.346-77.969-38.103-79.611-41.876-1.62-225.614.469-225.614.469-.018-.065-90.157-16.425-75.89 53.66 7.302 35.878 46.179 30.709 46.179 30.709s40.64-6.688 92.612-5.651c31.612.63 83.573 5.315 113.583 22.87 25.216 14.751 45.774 31.321 34.501 56.312-12.736 28.234-59.734 31.063-78.215 31.063" stroke-width="19" stroke="#333"/>
    <path d="M869.053 299.806c-40.228 0-96.878.561-96.878.561-17.339 0-150.53-.561-219.528-.561-42.705 0-26.416-67.137-27.484-110.426-.22-8.897 11.143-63.05 65.498-20.351 23.853 18.739 42.361-32.206 18.074-44.025-24.821-12.08-42.55-20.662-87.59-9.211-52.244 13.283-8.368 98.386-32.143 134.156-37.2 55.97-48.828 50.361-260.056 50.361-51.175 0-52.13-55.413-28.946-124.31 10.575-31.426 70.31-57.657 79.738 0 10.667 65.236 9.893 74.595 39.262 93.632 32.195 20.869 84.291-83.192 81-139.375-1.259-21.489-16.789-19.85-45.687-19.85" stroke="#e12b51" stroke-width="24"/>
    <path d="M869.053 299.806c-40.228 0-96.878.561-96.878.561-17.339 0-150.53-.561-219.528-.561-42.705 0-26.416-67.137-27.484-110.426-.22-8.897 11.143-63.05 65.498-20.351 23.853 18.739 42.361-32.206 18.074-44.025-24.821-12.08-42.55-20.662-87.59-9.211-52.244 13.283-8.368 98.386-32.143 134.156-37.2 55.97-48.828 50.361-260.056 50.361-51.175 0-52.13-55.413-28.946-124.31 10.575-31.426 70.31-57.657 79.738 0 10.667 65.236 9.893 74.595 39.262 93.632 32.195 20.869 84.291-83.192 81-139.375-1.259-21.489-16.789-19.85-45.687-19.85" stroke="#fff" stroke-dasharray="26 26" stroke-width="24"/>
    <path d="M869.053 299.806c-40.228 0-96.878.561-96.878.561-17.339 0-150.53-.561-219.528-.561-42.705 0-26.416-67.137-27.484-110.426-.22-8.897 11.143-63.05 65.498-20.351 23.853 18.739 42.361-32.206 18.074-44.025-24.821-12.08-42.55-20.662-87.59-9.211-52.244 13.283-8.368 98.386-32.143 134.156-37.2 55.97-48.828 50.361-260.056 50.361-51.175 0-52.13-55.413-28.946-124.31 10.575-31.426 70.31-57.657 79.738 0 10.667 65.236 9.893 74.595 39.262 93.632 32.195 20.869 84.291-83.192 81-139.375-1.259-21.489-16.789-19.85-45.687-19.85" stroke-width="19" stroke="#333"/>
    <path d="M355 110.407c-31.361 0-133.346-.295-157.294.057-16.878.248-97.706-.057-97.706 29.032v107.71c0 84.581 0 84.581 27.32 84.581" stroke="#e12b51" stroke-width="24"/>
    <path d="M355 110.407c-31.361 0-133.346-.295-157.294.057-16.878.248-97.706-.057-97.706 29.032v107.71c0 84.581 0 84.581 27.32 84.581" stroke="#fff" stroke-dasharray="26 26" stroke-width="24"/>
    <path d="M355 110.407c-31.361 0-133.346-.295-157.294.057-16.878.248-97.706-.057-97.706 29.032v107.71c0 84.581 0 84.581 27.32 84.581" stroke="#333" stroke-width="19"/>
    <path d="M127.32 331.905C199.582 331.733 700 332 700 332" stroke="#e12b51" stroke-width="24"/>
    <path d="M127.32 331.905C199.582 331.733 700 332 700 332" stroke="#fff" stroke-dasharray="26 26" stroke-width="24"/>
    <path d="M127.32 331.905C199.582 331.733 700 332 700 332" stroke-width="19" stroke="#333"/>
    <path d="M694.435 356.701s182.644-.068 295.244 0c49.499.03 81.531-39.852 81.51-58.398-.833-48.031-52.511-29.394-70.16-83.554-16.307-50.041 4.346-77.969-38.103-79.611-41.876-1.62-225.614.469-225.614.469-.018-.065-90.157-16.425-75.89 53.66 7.302 35.878 46.179 30.709 46.179 30.709s40.64-6.688 92.612-5.651c31.612.63 83.573 5.315 113.583 22.87 25.216 14.751 45.774 31.321 34.501 56.312-12.736 28.234-59.734 31.063-78.215 31.063" style="stroke-dasharray:30;stroke:#4d00e7;stroke-width:2px" transform="translate(0 -24)"/>
    <path style="fill:#d8d8d8;stroke:#4d00e7;stroke-width:2px" d="m708.529 356.701 57.947 41.841" transform="translate(0 -24)"/>
    <path d="M867.729 324.013c-40.228 0-96.878.561-96.878.561-17.339 0-150.53-.561-219.528-.561-42.705 0-26.416-67.137-27.484-110.426-.22-8.897 11.143-63.05 65.498-20.351 23.853 18.739 42.361-32.206 18.074-44.025-24.821-12.08-42.55-20.662-87.59-9.211-52.244 13.283-8.368 98.386-32.143 134.156-37.2 55.97-48.828 50.361-260.056 50.361-51.175 0-52.13-55.413-28.946-124.31 10.575-31.426 70.31-57.657 79.738 0 10.667 65.236 9.893 74.595 39.262 93.632 32.195 20.869 84.291-83.192 81-139.375-1.259-21.489-16.789-19.85-45.687-19.85" style="stroke-dasharray:30;stroke:#ff3d54;stroke-width:2px" transform="translate(0 -24)"/>
    <path style="stroke-width:2px;stroke:#ff3d54;fill:#22d558" d="m833.548 288.986 34.077 34.459" transform="translate(0 -24)"/>
    <path style="stroke-width:2px;stroke:#23dc5a" d="M320.923 98.715 355 133.174" transform="translate(0 -24)"/>
    <path d="M355.535 135.003c-31.361 0-133.346-.295-157.294.057-16.878.248-97.706-.057-97.706 29.032v107.71c0 84.581 0 84.581 27.32 84.581" style="stroke:#22d558;stroke-dasharray:30;stroke-width:2px" transform="translate(0 -24)"/>
    <path style="stroke-width:2px;transform-box:fill-box;transform-origin:50% 50%;stroke:#e9f843" d="M127.32 355.787 161 394.729" transform="translate(0 -24)"/>
  </g>
  <path style="stroke-width:0;stroke-miterlimit:6;stroke-linecap:square;fill:rgba(110,110,255,.47)" d="M351.217 101.941h7.067v18.901h-7M123.737 322.538h7.067v18.901h-7.067v-18.901Z"/>
  <path fill="#171941" d="M0 0h15v5H0z"/>
  <path fill="#fff" d="M685.924 322.459h4.8v4.8h-4.8v-4.8Z"/>
  <path d="M685.924 327.259h4.8v4.8h-4.8v-4.8Z"/>
  <path fill="#fff" d="M685.924 332.059h4.8v4.8h-4.8v-4.8Z"/>
  <path d="M685.924 336.859h4.8v4.8h-4.8v-4.8Zm4.8-14.4h4.8v4.8h-4.8v-4.8Z"/>
  <path fill="#fff" d="M695.524 322.459h4.8v4.8h-4.8v-4.8Zm-4.8 4.8h4.8v4.8h-4.8v-4.8Z"/>
  <path d="M690.724 332.059h4.8v4.8h-4.8v-4.8Z"/>
  <path fill="#fff" d="M690.724 336.859h4.8v4.8h-4.8v-4.8Z"/>
  <path d="M695.524 327.259h4.8v4.8h-4.8v-4.8Z"/>
  <path fill="#fff" d="M695.524 332.059h4.8v4.8h-4.8v-4.8Z"/>
  <path d="M695.524 336.859h4.8v4.8h-4.8v-4.8Z"/>
  <path style="stroke-width:0;stroke-miterlimit:6;stroke-linecap:square;fill:rgba(110,110,255,.47)" d="M865.953 290.405h7.067v18.901h-7.067v-18.901Z"/>
  <text fill="#F2ECFF" font-family="monospace" font-size="35" font-weight="700" style="white-space:pre" y="-7.958"><tspan x="455" y="37.042" style="font-size:35px;word-spacing:0">OnChain Race</tspan></text>
  <text style="fill:#f2ecff;font-family:monospace;font-size:20px;font-weight:700;white-space:pre" x="455" y="64.703">Season 1</text>
  <text style="fill:#4d00e7;font-family:monospace;font-size:24px;font-weight:700;text-transform:uppercase;white-space:pre"><tspan style="text-decoration:solid rgba(255,255,255,.9)" x="771.472" y="383.036">Sector 1</tspan></text>
  <text style="fill:#ff3d54;font-family:monospace;font-size:24px;font-weight:700;text-transform:uppercase;white-space:pre" x="771.472" y="261.279">Sector 2</text>
  <text style="fill:#22d558;font-family:monospace;font-size:24px;font-weight:700;text-transform:uppercase;white-space:pre" x="294.443" y="68.31">Sector 3</text>
  <text style="fill:#e9f843;font-family:monospace;font-size:24px;font-weight:700;text-transform:uppercase;white-space:pre" x="166.057" y="378.045">Sector 4</text>
  <path style="fill:none;stroke-dasharray:30;stroke-width:2px;stroke-linecap:round;stroke:#e9f843" d="M130.804 332.059h555.12"/>
  <circle cy="-27" r="3" fill="plum">
    <animateMotion begin="0s" dur="24" repeatCount="0">
      <mpath href="#a"/>
    </animateMotion>
  </circle>
  <circle cy="-27" r="3" fill="plum">
    <animateMotion begin="24" dur="21" repeatCount="0">
      <mpath href="#b"/>
    </animateMotion>
  </circle>
  <circle cy="-27" r="3" fill="plum">
    <animateMotion begin="45" dur="7" repeatCount="0">
      <mpath href="#c"/>
    </animateMotion>
  </circle>
  <circle cy="-27" r="3" fill="plum">
    <animateMotion begin="52" dur="9" repeatCount="0">
      <mpath href="#d"/>
    </animateMotion>
  </circle>
  <circle cy="-23" r="3" fill="#ff1493">
    <animateMotion begin="0s" dur="20" repeatCount="0">
      <mpath href="#a"/>
    </animateMotion>
  </circle>
  <circle cy="-23" r="3" fill="#ff1493">
    <animateMotion begin="20" dur="22" repeatCount="0">
      <mpath href="#b"/>
    </animateMotion>
  </circle>
  <circle cy="-23" r="3" fill="#ff1493">
    <animateMotion begin="42" dur="7" repeatCount="0">
      <mpath href="#c"/>
    </animateMotion>
  </circle>
  <circle cy="-23" r="3" fill="#ff1493">
    <animateMotion begin="49" dur="9" repeatCount="0">
      <mpath href="#d"/>
    </animateMotion>
  </circle>
  <circle cy="-20" r="3" fill="#1e90ff">
    <animateMotion begin="0s" dur="20" repeatCount="0">
      <mpath href="#a"/>
    </animateMotion>
  </circle>
  <circle cy="-20" r="3" fill="#1e90ff">
    <animateMotion begin="20" dur="25" repeatCount="0">
      <mpath href="#b"/>
    </animateMotion>
  </circle>
  <circle cy="-20" r="3" fill="#1e90ff">
    <animateMotion begin="45" dur="8" repeatCount="0">
      <mpath href="#c"/>
    </animateMotion>
  </circle>
  <circle cy="-20" r="3" fill="#1e90ff">
    <animateMotion begin="53" dur="8" repeatCount="0">
      <mpath href="#d"/>
    </animateMotion>
  </circle>
  <circle cy="-25" r="3" fill="#f08080">
    <animateMotion begin="0s" dur="21" repeatCount="0">
      <mpath href="#a"/>
    </animateMotion>
  </circle>
  <circle cy="-25" r="3" fill="#f08080">
    <animateMotion begin="21" dur="20" repeatCount="0">
      <mpath href="#b"/>
    </animateMotion>
  </circle>
  <circle cy="-25" r="3" fill="#f08080">
    <animateMotion begin="41" dur="7" repeatCount="0">
      <mpath href="#c"/>
    </animateMotion>
  </circle>
  <circle cy="-25" r="3" fill="#f08080">
    <animateMotion begin="48" dur="6" repeatCount="0">
      <mpath href="#d"/>
    </animateMotion>
  </circle>
  <circle cy="-25" r="3" fill="orange">
    <animateMotion begin="0s" dur="25" repeatCount="0">
      <mpath href="#a"/>
    </animateMotion>
  </circle>
  <circle cy="-25" r="3" fill="orange">
    <animateMotion begin="25" dur="20" repeatCount="0">
      <mpath href="#b"/>
    </animateMotion>
  </circle>
  <circle cy="-25" r="3" fill="orange">
    <animateMotion begin="45" dur="7" repeatCount="0">
      <mpath href="#c"/>
    </animateMotion>
  </circle>
  <circle cy="-25" r="3" fill="orange">
    <animateMotion begin="52" dur="10" repeatCount="0">
      <mpath href="#d"/>
    </animateMotion>
  </circle>
  <circle cy="-24" r="3" fill="red">
    <animateMotion begin="0s" dur="23" repeatCount="0">
      <mpath href="#a"/>
    </animateMotion>
  </circle>
  <circle cy="-24" r="3" fill="red">
    <animateMotion begin="23" dur="20" repeatCount="0">
      <mpath href="#b"/>
    </animateMotion>
  </circle>
  <circle cy="-24" r="3" fill="red">
    <animateMotion begin="43" dur="6" repeatCount="0">
      <mpath href="#c"/>
    </animateMotion>
  </circle>
  <circle cy="-24" r="3" fill="red">
    <animateMotion begin="49" dur="8" repeatCount="0">
      <mpath href="#d"/>
    </animateMotion>
  </circle>
  <circle cy="-22" r="3" fill="#fff">
    <animateMotion begin="0s" dur="21" repeatCount="0">
      <mpath href="#a"/>
    </animateMotion>
  </circle>
  <circle cy="-22" r="3" fill="#fff">
    <animateMotion begin="21" dur="25" repeatCount="0">
      <mpath href="#b"/>
    </animateMotion>
  </circle>
  <circle cy="-22" r="3" fill="#fff">
    <animateMotion begin="46" dur="9" repeatCount="0">
      <mpath href="#c"/>
    </animateMotion>
  </circle>
  <circle cy="-22" r="3" fill="#fff">
    <animateMotion begin="55" dur="6" repeatCount="0">
      <mpath href="#d"/>
    </animateMotion>
  </circle>
  <circle cy="-25" r="3" fill="#0000cd">
    <animateMotion begin="0s" dur="23" repeatCount="0">
      <mpath href="#a"/>
    </animateMotion>
  </circle>
  <circle cy="-25" r="3" fill="#0000cd">
    <animateMotion begin="23" dur="20" repeatCount="0">
      <mpath href="#b"/>
    </animateMotion>
  </circle>
  <circle cy="-25" r="3" fill="#0000cd">
    <animateMotion begin="43" dur="9" repeatCount="0">
      <mpath href="#c"/>
    </animateMotion>
  </circle>
  <circle cy="-25" r="3" fill="#0000cd">
    <animateMotion begin="52" dur="6" repeatCount="0">
      <mpath href="#d"/>
    </animateMotion>
  </circle>
  <circle cy="-25" r="3" fill="#7fffd4">
    <animateMotion begin="0s" dur="21" repeatCount="0">
      <mpath href="#a"/>
    </animateMotion>
  </circle>
  <circle cy="-25" r="3" fill="#7fffd4">
    <animateMotion begin="21" dur="22" repeatCount="0">
      <mpath href="#b"/>
    </animateMotion>
  </circle>
  <circle cy="-25" r="3" fill="#7fffd4">
    <animateMotion begin="43" dur="6" repeatCount="0">
      <mpath href="#c"/>
    </animateMotion>
  </circle>
  <circle cy="-25" r="3" fill="#7fffd4">
    <animateMotion begin="49" dur="7" repeatCount="0">
      <mpath href="#d"/>
    </animateMotion>
  </circle>
  <circle cy="-26" r="3" fill="#228b22">
    <animateMotion begin="0s" dur="24" repeatCount="0">
      <mpath href="#a"/>
    </animateMotion>
  </circle>
  <circle cy="-26" r="3" fill="#228b22">
    <animateMotion begin="24" dur="22" repeatCount="0">
      <mpath href="#b"/>
    </animateMotion>
  </circle>
  <circle cy="-26" r="3" fill="#228b22">
    <animateMotion begin="46" dur="9" repeatCount="0">
      <mpath href="#c"/>
    </animateMotion>
  </circle>
  <circle cy="-26" r="3" fill="#228b22">
    <animateMotion begin="55" dur="7" repeatCount="0">
      <mpath href="#d"/>
    </animateMotion>
  </circle>
</svg>
